<?xml version="1.0" encoding="UTF-8"?>
<!DOCTYPE svg PUBLIC "-//W3C//DTD SVG 1.1//EN" "http://www.w3.org/Graphics/SVG/1.1/DTD/svg11.dtd">
<!-- Creator: CorelDRAW 2020 (64-Bit) -->
<svg xmlns="http://www.w3.org/2000/svg" xml:space="preserve" width="196.321mm" height="38.4967mm" version="1.1" style="shape-rendering:geometricPrecision; text-rendering:geometricPrecision; image-rendering:optimizeQuality; fill-rule:evenodd; clip-rule:evenodd"
viewBox="0 0 19188.04 3762.6"
 xmlns:xlink="http://www.w3.org/1999/xlink"
 xmlns:xodm="http://www.corel.com/coreldraw/odm/2003">
 <defs>
  <style type="text/css">
   <![CDATA[
    .str0 {stroke:#FEFEFE;stroke-width:19.55;stroke-miterlimit:22.9256}
    .fil1 {fill:#FEFEFE}
    .fil0 {fill:#FEFEFE;fill-rule:nonzero}
   ]]>
  </style>
 </defs>
 <g id="Capa_x0020_1">
  <metadata id="CorelCorpID_0Corel-Layer"/>
  <g id="_3102013544672">
   <g>
    <path class="fil0" d="M4219.32 2120.93l0 -1967.2 664.91 0c154.16,0 280.39,27.94 378.66,83.37 98.27,55.47 171.29,129.83 218.63,224.05 47.32,94.22 71.22,199.26 71.22,315.11 0,115.86 -23.45,221.34 -70.77,316.01 -46.88,94.66 -119.46,170.4 -217.27,226.27 -98.29,55.91 -223.6,83.85 -376.87,83.85l-476.02 0 0 -211.42 468.36 0c105.95,0 190.69,-18.03 254.71,-54.54 64,-36.52 110.42,-86.11 139.73,-148.31 29.31,-62.66 43.73,-132.98 43.73,-211.87 0,-78.88 -14.42,-149.21 -43.73,-211.41 -29.3,-61.76 -76.18,-110.89 -140.64,-146.53 -64.92,-35.16 -150.56,-53.18 -257.4,-53.18l-418.78 0 0 1755.8 -238.46 0zm2120.94 34.72c-93.3,0 -178.07,-18.03 -254.25,-53.65 -76.18,-35.16 -137.02,-87 -181.66,-154.61 -44.62,-67.17 -67.18,-149.21 -67.18,-245.23 0,-84.29 16.67,-153.27 50.05,-206 32.9,-52.75 77.52,-94.22 133.42,-124.42 55.46,-30.19 117.2,-52.75 184.81,-67.62 67.62,-15.34 135.7,-27.04 204.21,-36.06 89.7,-11.73 162.28,-20.29 218.19,-26.59 56.33,-5.86 97.37,-16.23 123.05,-31.12 26.15,-14.87 38.75,-40.12 38.75,-76.63l0 -7.66c0,-95.11 -25.68,-168.59 -77.07,-220.89 -51.39,-52.74 -129.38,-78.88 -233.97,-78.88 -108.2,0 -192.94,23.45 -254.7,71.23 -61.29,47.32 -104.56,97.82 -129.38,151.46l-215.01 -76.65c38.31,-89.7 89.7,-159.58 154.17,-210.05 64.02,-50.05 134.78,-85.21 210.97,-105.49 76.63,-20.29 151.9,-30.22 226.29,-30.22 47.32,0 101.86,5.41 163.62,16.7 61.76,11.26 121.71,34.25 179.88,68.51 57.69,34.71 105.93,87 144.24,156.87 38.76,69.42 57.69,163.17 57.69,280.39l0 971.88 -226.75 0 0 -199.7 -11.26 0c-15.32,32.01 -41.02,66.28 -77.08,102.78 -35.61,36.52 -83.4,67.62 -142.9,92.85 -59.5,25.71 -132.08,38.78 -218.18,38.78zm34.71 -203.76c89.7,0 165.44,-17.57 227.2,-52.73 61.76,-35.17 108.64,-80.7 140.2,-136.6 31.56,-55.44 47.32,-114.05 47.32,-175.81l0 -207.34c-9.45,11.71 -30.19,22.08 -62.65,31.09 -32.46,9.48 -69.4,17.59 -111.34,24.35 -41.91,6.77 -82.95,12.18 -122.15,17.14 -39.23,4.94 -71.22,9 -95.56,12.16 -59.06,7.66 -113.6,19.83 -164.54,36.97 -50.94,16.67 -91.96,41.91 -123.07,75.73 -31.1,33.8 -46.43,79.33 -46.43,137.03 0,78.43 29.3,137.94 87.91,178.06 58.59,40.12 132.98,59.95 223.13,59.95zm1087.3 169.05l0 -1967.2 226.74 0 0 726.19 19.38 0c16.67,-25.68 39.67,-58.13 69.42,-98.26 29.75,-40.12 73.03,-76.18 128.92,-107.75 55.9,-31.56 132.08,-47.34 228.11,-47.34 123.96,0 233.5,31.12 328.61,92.88 94.67,62.21 168.61,150.1 221.79,264.15 53.2,114.06 79.79,248.38 79.79,403.46 0,156.41 -26.59,291.64 -79.79,405.71 -53.18,114.49 -126.68,202.85 -220.87,265.06 -94.22,62.66 -202.86,93.75 -325.93,93.75 -94.67,0 -170.4,-15.77 -227.64,-47.32 -56.81,-32.01 -100.52,-68.06 -131.19,-108.64 -31.09,-40.57 -54.54,-74.39 -71.21,-101.43l-27.04 0 0 226.74 -219.08 0zm223.15 -737.48c0,111.34 16.22,209.18 48.68,294.37 32.9,84.74 80.67,151.02 143.35,198.8 62.65,47.77 139.73,71.22 230.34,71.22 94.67,0 173.99,-24.8 238.01,-75.29 63.55,-50.02 111.34,-118.11 143.8,-203.3 32.46,-85.66 48.68,-180.77 48.68,-285.81 0,-103.67 -15.78,-197.44 -47.79,-281.29 -31.54,-83.4 -79.32,-149.66 -142.9,-198.78 -63.99,-48.69 -143.79,-73.48 -239.8,-73.48 -91.96,0 -169.5,23.43 -232.16,69.85 -63.1,46.45 -110.44,110.89 -142.45,193.84 -32.01,82.95 -47.76,179.41 -47.76,289.85zm1651.68 -1229.72l0 1967.2 -226.75 0 0 -1967.2 226.75 0zm1014.24 1997.86c-133.42,0 -250.17,-31.54 -350.24,-95.11 -100.07,-63.11 -178.07,-151.91 -234.42,-265.96 -55.89,-114.05 -83.85,-247.04 -83.85,-399.41 0,-153.72 27.96,-288.03 83.85,-402.55 56.35,-114.49 134.34,-203.74 234.42,-266.84 100.07,-63.57 216.82,-95.14 350.24,-95.14 133,0 249.75,31.57 349.82,95.14 100.51,63.1 178.51,152.35 234.39,266.84 56.36,114.52 84.32,248.83 84.32,402.55 0,152.36 -27.96,285.36 -84.32,399.41 -55.88,114.04 -133.87,202.85 -234.39,265.96 -100.07,63.57 -216.82,95.11 -349.82,95.11zm0 -203.74c100.99,0 184.39,-25.71 249.75,-77.55 65.36,-51.84 113.59,-119.9 144.69,-204.64 31.56,-84.31 47.34,-176.27 47.34,-274.54 0,-98.71 -15.78,-190.67 -47.34,-275.88 -31.1,-85.19 -79.33,-153.72 -144.69,-206.45 -65.36,-52.31 -148.76,-78.88 -249.75,-78.88 -101.41,0 -184.36,26.57 -249.73,78.88 -65.36,52.73 -113.59,121.26 -145.15,206.45 -31.55,85.21 -46.88,177.17 -46.88,275.88 0,98.27 15.33,190.23 46.88,274.54 31.56,84.75 79.79,152.8 145.15,204.64 65.37,51.84 148.32,77.55 249.73,77.55zm1044.93 -1794.11l284.44 0 668.51 1633.16 23.01 0 668.5 -1633.16 284.45 0 0 1967.2 -222.69 0 0 -1494.36 -19.37 0 -614.89 1494.36 -215 0 -614.87 -1494.36 -18.93 0 0 1494.36 -223.15 0 0 -1967.2zm2808.37 2001.92c-93.3,0 -178.06,-18.03 -254.24,-53.65 -76.18,-35.16 -137.03,-87 -181.67,-154.61 -44.62,-67.17 -67.17,-149.21 -67.17,-245.23 0,-84.29 16.67,-153.27 50.04,-206 32.91,-52.75 77.53,-94.22 133.43,-124.42 55.46,-30.19 117.2,-52.75 184.81,-67.62 67.62,-15.34 135.7,-27.04 204.21,-36.06 89.7,-11.73 162.28,-20.29 218.18,-26.59 56.34,-5.86 97.38,-16.23 123.06,-31.12 26.14,-14.87 38.75,-40.12 38.75,-76.63l0 -7.66c0,-95.11 -25.69,-168.59 -77.07,-220.89 -51.39,-52.74 -129.39,-78.88 -233.98,-78.88 -108.19,0 -192.93,23.45 -254.69,71.23 -61.29,47.32 -104.57,97.82 -129.38,151.46l-215.01 -76.65c38.31,-89.7 89.7,-159.58 154.17,-210.05 64.02,-50.05 134.78,-85.21 210.96,-105.49 76.63,-20.29 151.91,-30.22 226.3,-30.22 47.32,0 101.86,5.41 163.62,16.7 61.76,11.26 121.71,34.25 179.88,68.51 57.69,34.71 105.93,87 144.24,156.87 38.76,69.42 57.69,163.17 57.69,280.39l0 971.88 -226.75 0 0 -199.7 -11.26 0c-15.32,32.01 -41.02,66.28 -77.08,102.78 -35.61,36.52 -83.4,67.62 -142.9,92.85 -59.5,25.71 -132.08,38.78 -218.19,38.78zm34.72 -203.76c89.7,0 165.43,-17.57 227.19,-52.73 61.76,-35.17 108.64,-80.7 140.21,-136.6 31.56,-55.44 47.32,-114.05 47.32,-175.81l0 -207.34c-9.45,11.71 -30.19,22.08 -62.65,31.09 -32.46,9.48 -69.4,17.59 -111.34,24.35 -41.91,6.77 -82.95,12.18 -122.15,17.14 -39.23,4.94 -71.22,9 -95.56,12.16 -59.06,7.66 -113.6,19.83 -164.54,36.97 -50.94,16.67 -91.96,41.91 -123.07,75.73 -31.1,33.8 -46.44,79.33 -46.44,137.03 0,78.43 29.31,137.94 87.92,178.06 58.58,40.12 132.98,59.95 223.13,59.95zm1056.65 169.05l0 -1475.42 219.08 0 0 223.15 15.32 0c27.04,-73.03 75.73,-132.53 146.05,-178.07 70.32,-45.08 149.68,-68.06 238.01,-68.06 16.69,0 37.42,0.45 62.68,0.9 24.79,0.92 43.72,1.81 56.8,3.15l0 230.37c-7.66,-1.81 -25.26,-4.96 -52.75,-9.03 -27.05,-4.05 -55.44,-6.29 -85.66,-6.29 -71.66,0 -135.68,14.86 -191.57,44.61 -56.35,29.75 -100.54,70.79 -132.53,123.08 -32.45,52.28 -48.68,111.33 -48.68,178.06l0 933.57 -226.74 0zm1740.91 -1475.42l0 192.03 -764.54 0 0 -192.03 764.54 0zm-541.84 -353.4l226.75 0 0 1405.99c0,64.45 9.45,112.23 28.38,143.8 18.49,31.54 42.83,52.73 72.58,63.55 29.75,10.37 61.32,15.77 94.67,15.77 25.24,0 45.53,-1.34 61.76,-4.52 15.77,-2.7 28.83,-4.94 38.31,-7.19l45.98 203.74c-15.34,5.85 -36.52,11.74 -64.47,17.59 -27.49,6.3 -62.2,9.45 -104.58,9.45 -64,0 -126.66,-13.97 -187.52,-41.46 -61.32,-27.49 -111.79,-69.43 -151.91,-125.78 -40.12,-56.36 -59.95,-127.57 -59.95,-213.23l0 -1467.73zm883.54 1828.82l0 -1475.42 226.75 0 0 1475.42 -226.75 0zm11.72 -1675.09l234.42 -445.83 265.06 0 -299.77 445.83 -199.7 0zm856.49 787.51l0 887.59 -226.74 0 0 -1475.42 219.08 0 0 230.81 19.38 0c34.27,-75.28 87,-135.23 157.32,-181.22 70.32,-45.98 161.39,-68.53 272.73,-68.53 100.07,0 187.51,20.3 262.35,60.87 74.84,40.57 132.98,102.33 174.91,184.36 41.47,82.51 62.21,186.18 62.21,311.49l0 937.63 -226.74 0 0 -921.85c0,-116.31 -29.75,-206.45 -90.17,-271.37 -60.4,-65.36 -142.88,-97.82 -247.92,-97.82 -72.13,0 -136.6,15.77 -193.39,47.32 -56.8,31.11 -101.41,77.1 -133.87,137.04 -32.9,60.4 -49.13,133.43 -49.13,219.08z"/>
    <path class="fil0" d="M4458.33 3516.76l-239.02 -874.32 107.59 0 182.71 712.04 8.42 0 186.13 -712.04 119.6 0 186.11 712.04 8.43 0 182.7 -712.04 107.59 0 -239.01 874.32 -109.19 0 -192.93 -696.59 -6.81 0 -193.15 696.59 -109.18 0zm1181.44 13.63c-63.1,0 -117.6,-14.04 -163.28,-42.09 -45.68,-28.04 -80.73,-67.31 -105.37,-117.79 -24.65,-50.49 -36.87,-109.4 -36.87,-176.51 0,-67.13 12.22,-126.41 36.87,-177.72 24.64,-51.48 59.09,-91.56 103.37,-120.39 44.28,-28.86 95.97,-43.28 155.06,-43.28 34.27,0 67.94,5.6 101.19,17.02 33.26,11.44 63.72,29.86 90.96,55.31 27.24,25.43 49.08,59.1 65.32,100.97 16.22,41.86 24.24,93.36 24.44,154.47l0 42.67 -505.48 0 0 -87.14 402.9 0c0,-36.87 -7.21,-69.94 -22.04,-98.99 -14.63,-29.05 -35.24,-51.88 -62.29,-68.7 -26.86,-16.83 -58.51,-25.27 -94.99,-25.27 -40.05,0 -74.71,10.04 -103.96,29.67 -29.06,19.82 -51.5,45.47 -67.11,77.13 -15.64,31.65 -23.45,65.5 -23.45,101.56l0 58.11c0,49.49 8.6,91.36 25.83,125.62 17.25,34.46 41.08,60.51 71.94,78.12 30.65,17.85 66.33,26.66 106.97,26.66 26.45,0 50.5,-3.62 71.93,-11.22 21.63,-7.62 40.07,-18.85 55.71,-34.06 15.82,-15.22 27.84,-34.26 36.46,-57.12l97.16 27.27c-10.2,33.05 -27.44,62.09 -51.48,86.95 -24.26,24.84 -54.1,44.28 -89.76,58.11 -35.46,13.82 -75.52,20.63 -120.01,20.63zm438.76 -13.63l0 -874.32 100.78 0 0 322.77 8.61 0c7.43,-11.44 17.63,-25.85 30.86,-43.68 13.22,-17.82 32.46,-33.86 57.3,-47.89 24.84,-14.02 58.7,-21.02 101.37,-21.02 55.09,0 103.78,13.82 146.06,41.27 42.06,27.64 74.92,66.71 98.56,117.39 23.64,50.69 35.46,110.4 35.46,179.32 0,69.51 -11.82,129.61 -35.46,180.3 -23.64,50.89 -56.29,90.16 -98.16,117.81 -41.89,27.86 -90.17,41.68 -144.86,41.68 -42.07,0 -75.74,-7.03 -101.19,-21.04 -25.24,-14.22 -44.66,-30.26 -58.28,-48.28 -13.82,-18.03 -24.24,-33.05 -31.67,-45.08l-12.01 0 0 100.77 -97.38 0zm99.18 -327.76c0,49.48 7.19,92.96 21.64,130.82 14.6,37.66 35.86,67.11 63.7,88.35 27.86,21.23 62.1,31.67 102.37,31.67 42.09,0 77.35,-11.03 105.78,-33.46 28.27,-22.25 49.49,-52.5 63.91,-90.37 14.45,-38.08 21.64,-80.33 21.64,-127.01 0,-46.08 -7.01,-87.76 -21.23,-125.04 -14.02,-37.05 -35.25,-66.51 -63.51,-88.34 -28.45,-21.64 -63.91,-32.67 -106.59,-32.67 -40.86,0 -75.33,10.44 -103.16,31.08 -28.04,20.61 -49.08,49.28 -63.31,86.14 -14.22,36.87 -21.23,79.74 -21.23,128.83zm916.78 327.76l-269.87 0 0 -874.32 281.89 0c84.74,0 157.28,17.45 217.59,52.31 60.28,34.86 106.56,84.92 138.83,149.84 32.06,65.12 48.28,142.85 48.28,233.41 0,90.96 -16.22,169.29 -48.68,235.01 -32.46,65.51 -79.73,115.79 -141.84,151.06 -61.91,35.05 -137.45,52.68 -226.2,52.68zm-163.88 -93.96l157.07 0c72.33,0 132.23,-13.82 179.7,-41.87 47.49,-27.86 82.95,-67.51 106.18,-119.01 23.45,-51.5 35.06,-112.79 35.06,-183.92 0,-70.72 -11.42,-131.42 -34.46,-182.51 -23.02,-51.1 -57.5,-90.37 -103.37,-117.82 -45.88,-27.43 -102.98,-41.27 -171.1,-41.27l-169.08 0 0 686.4zm1019.35 107.59c-63.1,0 -117.6,-14.04 -163.28,-42.09 -45.68,-28.04 -80.74,-67.31 -105.38,-117.79 -24.64,-50.49 -36.86,-109.4 -36.86,-176.51 0,-67.13 12.22,-126.41 36.86,-177.72 24.64,-51.48 59.1,-91.56 103.38,-120.39 44.28,-28.86 95.97,-43.28 155.06,-43.28 34.27,0 67.94,5.6 101.18,17.02 33.27,11.44 63.73,29.86 90.96,55.31 27.24,25.43 49.08,59.1 65.32,100.97 16.22,41.86 24.23,93.36 24.44,154.47l0 42.67 -505.48 0 0 -87.14 402.9 0c0,-36.87 -7.22,-69.94 -22.04,-98.99 -14.63,-29.05 -35.24,-51.88 -62.3,-68.7 -26.85,-16.83 -58.5,-25.27 -94.98,-25.27 -40.05,0 -74.71,10.04 -103.97,29.67 -29.05,19.82 -51.49,45.47 -67.1,77.13 -15.64,31.65 -23.46,65.5 -23.46,101.56l0 58.11c0,49.49 8.61,91.36 25.84,125.62 17.25,34.46 41.08,60.51 71.94,78.12 30.65,17.85 66.32,26.66 106.97,26.66 26.45,0 50.49,-3.62 71.92,-11.22 21.64,-7.62 40.08,-18.85 55.72,-34.06 15.82,-15.22 27.84,-34.26 36.46,-57.12l97.16 27.27c-10.2,33.05 -27.44,62.09 -51.48,86.95 -24.26,24.84 -54.1,44.28 -89.76,58.11 -35.46,13.82 -75.52,20.63 -120.01,20.63zm940.83 -669.36l-242.4 655.73 -102.39 0 -242.4 -655.73 109.18 0 180.9 522.5 7.03 0 180.89 -522.5 109.18 0zm384.27 669.36c-63.11,0 -117.61,-14.04 -163.29,-42.09 -45.67,-28.04 -80.73,-67.31 -105.37,-117.79 -24.64,-50.49 -36.87,-109.4 -36.87,-176.51 0,-67.13 12.23,-126.41 36.87,-177.72 24.64,-51.48 59.1,-91.56 103.38,-120.39 44.28,-28.86 95.96,-43.28 155.06,-43.28 34.27,0 67.94,5.6 101.18,17.02 33.27,11.44 63.72,29.86 90.96,55.31 27.24,25.43 49.09,59.1 65.32,100.97 16.23,41.86 24.24,93.36 24.45,154.47l0 42.67 -505.48 0 0 -87.14 402.9 0c0,-36.87 -7.22,-69.94 -22.05,-98.99 -14.63,-29.05 -35.24,-51.88 -62.29,-68.7 -26.86,-16.83 -58.51,-25.27 -94.98,-25.27 -40.06,0 -74.71,10.04 -103.97,29.67 -29.05,19.82 -51.5,45.47 -67.11,77.13 -15.63,31.65 -23.45,65.5 -23.45,101.56l0 58.11c0,49.49 8.6,91.36 25.83,125.62 17.25,34.46 41.08,60.51 71.95,78.12 30.64,17.85 66.32,26.66 106.97,26.66 26.45,0 50.49,-3.62 71.92,-11.22 21.64,-7.62 40.08,-18.85 55.71,-34.06 15.82,-15.22 27.84,-34.26 36.47,-57.12l97.15 27.27c-10.2,33.05 -27.43,62.09 -51.48,86.95 -24.25,24.84 -54.09,44.28 -89.76,58.11 -35.46,13.82 -75.52,20.63 -120,20.63zm525.9 -887.95l0 874.32 -100.78 0 0 -874.32 100.78 0zm450.79 887.95c-59.29,0 -111.19,-14.04 -155.66,-42.27 -44.49,-28.05 -79.14,-67.54 -104.18,-118.22 -24.85,-50.69 -37.27,-109.78 -37.27,-177.48 0,-68.32 12.41,-128.04 37.27,-178.92 25.04,-50.9 59.69,-90.55 104.18,-118.6 44.47,-28.27 96.37,-42.28 155.66,-42.28 59.1,0 111,14.02 155.47,42.28 44.68,28.04 79.35,67.69 104.18,118.6 25.05,50.88 37.46,110.6 37.46,178.92 0,67.7 -12.41,126.8 -37.46,177.48 -24.83,50.69 -59.5,90.17 -104.18,118.22 -44.47,28.24 -96.37,42.27 -155.47,42.27zm0 -90.55c44.87,0 81.95,-11.44 111,-34.46 29.05,-23.04 50.47,-53.31 64.32,-90.96 14.01,-37.48 21.01,-78.35 21.01,-122.01 0,-43.89 -7.01,-84.77 -21.01,-122.63 -13.85,-37.86 -35.27,-68.32 -64.32,-91.75 -29.05,-23.25 -66.13,-35.08 -111,-35.08 -45.09,0 -81.92,11.83 -110.99,35.08 -29.06,23.43 -50.48,53.88 -64.52,91.75 -14.01,37.86 -20.83,78.74 -20.83,122.63 0,43.66 6.82,84.52 20.83,122.01 14.04,37.65 35.46,67.92 64.52,90.96 29.07,23.03 65.9,34.46 110.99,34.46zm450.77 322.75l0 -901.56 97.38 0 0 104.18 12.03 0c7.41,-11.44 17.63,-25.85 30.86,-43.68 13.2,-17.82 32.24,-33.86 57.29,-47.89 24.85,-14.02 58.69,-21.02 101.36,-21.02 55.09,0 103.79,13.82 145.86,41.27 42.27,27.64 75.11,66.71 98.75,117.39 23.45,50.69 35.26,110.4 35.26,179.32 0,69.51 -11.82,129.61 -35.26,180.3 -23.64,50.89 -56.48,90.16 -98.16,117.81 -41.87,27.86 -90.14,41.68 -144.86,41.68 -42.07,0 -75.74,-7.03 -101.16,-21.04 -25.27,-14.22 -44.69,-30.26 -58.51,-48.28 -13.62,-18.03 -24.04,-33.05 -31.45,-45.08l-8.63 0 0 346.6 -100.78 0zm99.18 -573.59c0,49.48 7.22,92.96 21.64,130.82 14.63,37.66 35.66,67.11 63.72,88.35 27.84,21.23 61.89,31.67 102.37,31.67 42.07,0 77.33,-11.03 105.58,-33.46 28.45,-22.25 49.68,-52.5 64.12,-90.37 14.43,-38.08 21.64,-80.33 21.64,-127.01 0,-46.08 -7.21,-87.76 -21.23,-125.04 -14.04,-37.05 -35.26,-66.51 -63.53,-88.34 -28.43,-21.64 -63.91,-32.67 -106.57,-32.67 -41.08,0 -75.33,10.44 -103.39,31.08 -27.84,20.61 -48.88,49.28 -63.11,86.14 -14.22,36.87 -21.23,79.74 -21.23,128.83zm908.16 341.39c-63.11,0 -117.61,-14.04 -163.29,-42.09 -45.67,-28.04 -80.73,-67.31 -105.37,-117.79 -24.64,-50.49 -36.87,-109.4 -36.87,-176.51 0,-67.13 12.23,-126.41 36.87,-177.72 24.64,-51.48 59.1,-91.56 103.38,-120.39 44.28,-28.86 95.96,-43.28 155.06,-43.28 34.27,0 67.94,5.6 101.18,17.02 33.27,11.44 63.73,29.86 90.96,55.31 27.24,25.43 49.09,59.1 65.32,100.97 16.23,41.86 24.24,93.36 24.45,154.47l0 42.67 -505.48 0 0 -87.14 402.9 0c0,-36.87 -7.22,-69.94 -22.05,-98.99 -14.63,-29.05 -35.24,-51.88 -62.29,-68.7 -26.86,-16.83 -58.51,-25.27 -94.98,-25.27 -40.06,0 -74.71,10.04 -103.97,29.67 -29.05,19.82 -51.5,45.47 -67.11,77.13 -15.63,31.65 -23.45,65.5 -23.45,101.56l0 58.11c0,49.49 8.6,91.36 25.83,125.62 17.25,34.46 41.08,60.51 71.95,78.12 30.64,17.85 66.32,26.66 106.97,26.66 26.45,0 50.49,-3.62 71.92,-11.22 21.64,-7.62 40.08,-18.85 55.71,-34.06 15.82,-15.22 27.84,-34.26 36.47,-57.12l97.15 27.27c-10.2,33.05 -27.43,62.09 -51.48,86.95 -24.25,24.84 -54.09,44.28 -89.76,58.11 -35.46,13.82 -75.51,20.63 -120,20.63zm425.12 -13.63l0 -655.73 97.37 0 0 99.16 6.82 0c12.03,-32.46 33.67,-58.89 64.91,-79.12 31.27,-20.04 66.51,-30.26 105.78,-30.26 7.41,0 16.64,0.2 27.86,0.4 11.02,0.41 19.43,0.79 25.24,1.41l0 102.38c-3.4,-0.81 -11.22,-2.22 -23.42,-4.01 -12.04,-1.81 -24.67,-2.81 -38.08,-2.81 -31.86,0 -60.29,6.61 -85.15,19.83 -25.04,13.22 -44.68,31.45 -58.91,54.71 -14.42,23.23 -21.64,49.47 -21.64,79.12l0 414.92 -100.78 0z"/>
   </g>
   <g>
    <path class="fil1" d="M507.06 771.66l7.35 0 0 -7.35 7.35 0 0 -7.35 7.35 0 0 -7.35 7.35 0 0 -7.35 7.35 0 0 -7.35 7.35 0 0 -7.35 7.34 0 0 -7.34 7.35 0 0 -7.35 7.35 0 0 -7.35 7.35 0 0 -7.35 7.35 0 0 -7.35 7.35 0 0 -7.35 7.35 0 0 -7.35 7.34 0 0 -7.35 7.35 0 0 -7.34 7.35 0 0 -7.35 7.35 0 0 -7.35 7.35 0 0 -7.35 7.35 0 0 -7.35 7.35 0 0 -7.35 7.35 0 0 -7.35 7.34 0 0 -7.35 7.35 0 0 -7.34 7.35 0 0 -7.35 7.35 0 0 -7.35 7.35 0 0 -7.35 7.35 0 0 -7.35 7.35 0 0 -7.35 7.34 0 0 -7.35 7.35 0 0 -7.34 7.35 0 0 -7.35 7.35 0 0 -7.35 7.35 0 0 -7.35 7.35 0 0 -7.35 7.35 0 0 -7.35 7.35 0 0 -7.35 7.34 0 0 7.35 14.7 0 0 7.35 7.35 0 0 7.35 7.35 0 0 7.35 7.35 0 0 7.35 7.35 0 0 7.35 14.69 0 0 7.34 7.35 0 0 7.35 7.35 0 0 7.35 7.35 0 0 7.35 7.35 0 0 7.35 7.35 0 0 7.35 14.69 0 0 7.35 7.35 0 0 7.34 7.35 0 0 7.35 7.35 0 0 7.35 7.35 0 0 7.35 14.7 0 0 7.35 7.35 0 0 7.35 7.34 0 0 7.35 7.35 0 0 7.35 7.35 0 0 7.34 7.35 0 0 7.35 14.7 0 0 7.35 7.35 0 0 7.35 7.35 0 0 7.35 7.34 0 0 7.35 7.35 0 0 7.35 14.7 0 0 7.35 7.35 0 0 7.34 7.35 0 0 7.35 14.69 0 0 7.35 14.7 0 0 7.35 22.05 0 0 7.35 95.53 0 0 -7.35 22.05 0 0 -7.35 14.7 0 0 -7.35 14.69 0 0 -7.35 14.7 0 0 -7.34 14.7 0 0 -7.35 14.69 0 0 -7.35 14.7 0 0 -7.35 14.7 0 0 -7.35 14.7 0 0 -7.35 22.04 0 0 -7.35 14.7 0 0 -7.35 14.7 0 0 -7.34 22.04 0 0 -7.35 14.7 0 0 -7.35 22.05 0 0 -7.35 22.04 0 0 -7.35 22.05 0 0 -7.35 22.05 0 0 -7.35 22.05 0 0 -7.35 22.04 0 0 -7.34 14.7 0 0 -7.35 14.69 0 0 -7.35 7.36 0 0 -7.35 7.34 0 0 -7.35 7.35 0 0 -7.35 7.35 0 0 -7.35 7.35 0 0 -7.34 7.35 0 0 -7.35 7.34 0 0 -7.35 7.36 0 0 -14.7 7.34 0 0 -14.7 7.35 0 0 -22.04 7.35 0 0 -44.1 7.35 0 0 -88.18 7.35 0 0 -88.18 7.35 0 0 -95.54 7.34 0 0 -44.09 382.14 0 0 44.09 7.35 0 0 88.19 7.35 0 0 88.18 7.35 0 0 88.19 7.35 0 0 51.44 7.34 0 0 22.04 7.35 0 0 14.7 7.35 0 0 14.7 7.35 0 0 7.35 7.35 0 0 7.35 7.35 0 0 7.34 7.35 0 0 7.35 7.34 0 0 7.35 7.35 0 0 7.35 7.35 0 0 7.35 7.35 0 0 7.35 14.7 0 0 7.35 14.7 0 0 7.34 22.04 0 0 7.35 22.05 0 0 7.35 22.04 0 0 7.35 22.05 0 0 7.35 22.05 0 0 7.35 22.04 0 0 7.35 14.7 0 0 7.35 22.05 0 0 7.34 14.69 0 0 7.35 14.7 0 0 7.35 22.05 0 0 7.35 14.69 0 0 7.35 14.71 0 0 7.35 14.69 0 0 7.35 14.7 0 0 7.35 14.69 0 0 7.34 14.7 0 0 7.35 14.7 0 0 7.35 14.7 0 0 7.35 22.05 0 0 7.35 95.53 0 0 -7.35 22.05 0 0 -7.35 14.69 0 0 -7.35 14.7 0 0 -7.35 7.35 0 0 -7.34 7.34 0 0 -7.35 14.7 0 0 -7.35 7.35 0 0 -7.35 7.35 0 0 -7.35 7.35 0 0 -7.35 7.35 0 0 -7.35 14.69 0 0 -7.35 7.36 0 0 -7.34 7.34 0 0 -7.35 7.35 0 0 -7.35 7.35 0 0 -7.35 14.7 0 0 -7.35 7.35 0 0 -7.35 7.35 0 0 -7.35 7.35 0 0 -7.35 7.34 0 0 -7.34 7.35 0 0 -7.35 14.7 0 0 -7.35 7.35 0 0 -7.35 7.34 0 0 -7.35 7.36 0 0 -7.35 7.35 0 0 -7.35 14.69 0 0 -7.34 7.35 0 0 -7.35 7.35 0 0 -7.35 7.35 0 0 -7.35 7.35 0 0 -7.35 7.35 0 0 -7.35 14.69 0 0 -7.35 7.35 0 0 7.35 7.35 0 0 7.35 7.35 0 0 7.35 7.35 0 0 7.35 7.35 0 0 7.35 7.35 0 0 7.35 7.34 0 0 7.34 7.35 0 0 7.35 7.35 0 0 7.35 7.35 0 0 7.35 7.35 0 0 7.35 7.35 0 0 7.35 7.35 0 0 7.35 7.35 0 0 7.34 7.34 0 0 7.35 7.35 0 0 7.35 7.35 0 0 7.35 7.35 0 0 7.35 7.35 0 0 7.35 7.35 0 0 7.35 7.35 0 0 7.35 7.35 0 0 7.34 7.34 0 0 7.35 7.35 0 0 7.35 7.35 0 0 7.35 7.35 0 0 7.35 7.35 0 0 7.35 7.35 0 0 7.35 7.35 0 0 7.35 7.35 0 0 7.34 7.34 0 0 7.35 7.35 0 0 7.35 7.35 0 0 7.35 7.35 0 0 7.35 7.35 0 0 7.35 7.35 0 0 7.35 7.35 0 0 7.35 -7.35 0 0 14.69 -7.35 0 0 7.35 -7.35 0 0 7.35 -7.35 0 0 7.35 -7.35 0 0 7.35 -7.35 0 0 14.7 -7.34 0 0 7.34 -7.35 0 0 7.35 -7.35 0 0 7.35 -7.35 0 0 7.35 -7.35 0 0 7.35 -7.35 0 0 14.7 -7.35 0 0 7.34 -7.35 0 0 7.35 -7.34 0 0 7.35 -7.35 0 0 7.35 -7.35 0 0 14.7 -7.35 0 0 7.35 -7.35 0 0 7.35 -7.35 0 0 7.34 -7.35 0 0 7.35 -7.35 0 0 7.35 -7.34 0 0 14.7 -7.35 0 0 7.35 -7.35 0 0 7.35 -7.35 0 0 7.35 -7.35 0 0 7.34 -7.35 0 0 14.7 -7.35 0 0 7.35 -7.35 0 0 7.35 -7.34 0 0 14.7 -7.35 0 0 14.69 -7.35 0 0 22.05 -7.35 0 0 95.53 7.35 0 0 22.05 7.35 0 0 14.7 7.35 0 0 14.69 7.34 0 0 14.7 7.35 0 0 14.7 7.35 0 0 14.7 7.35 0 0 14.69 7.35 0 0 14.7 7.35 0 0 14.7 7.35 0 0 22.05 7.35 0 0 14.7 7.34 0 0 14.69 7.35 0 0 22.05 7.35 0 0 14.7 7.35 0 0 22.04 7.35 0 0 22.05 7.35 0 0 22.04 7.35 0 0 22.05 7.35 0 0 22.05 7.34 0 0 22.04 7.35 0 0 14.7 7.35 0 0 14.7 7.35 0 0 7.35 7.35 0 0 7.35 7.35 0 0 7.34 7.35 0 0 7.35 7.35 0 0 7.35 7.34 0 0 7.35 7.35 0 0 7.35 7.35 0 0 7.35 14.7 0 0 7.35 14.7 0 0 7.35 22.04 0 0 7.34 51.44 0 0 7.35 88.19 0 0 7.35 88.18 0 0 7.35 88.19 0 0 7.35 44.09 0 0 382.13 -44.09 0 0 7.35 -88.19 0 0 7.35 -88.18 0 0 7.35 -88.19 0 0 7.35 -51.44 0 0 7.35 -22.04 0 0 7.34 -14.7 0 0 7.35 -14.7 0 0 7.35 -7.35 0 0 7.35 -7.35 0 0 7.35 -7.34 0 0 7.35 -7.35 0 0 7.35 -7.35 0 0 7.35 -7.35 0 0 7.34 -7.35 0 0 7.36 -7.35 0 0 14.69 -7.35 0 0 14.7 -7.35 0 0 22.04 -7.34 0 0 22.05 -7.35 0 0 22.05 -7.35 0 0 22.04 -7.35 0 0 22.05 -7.35 0 0 22.04 -7.35 0 0 14.7 -7.35 0 0 22.05 -7.35 0 0 14.7 -7.34 0 0 14.7 -7.35 0 0 22.04 -7.35 0 0 14.7 -7.35 0 0 14.7 -7.35 0 0 14.69 -7.35 0 0 14.7 -7.35 0 0 14.7 -7.35 0 0 14.7 -7.34 0 0 14.69 -7.35 0 0 14.7 -7.35 0 0 22.05 -7.35 0 0 95.53 7.35 0 0 22.05 7.35 0 0 14.69 7.35 0 0 14.7 7.34 0 0 7.35 7.35 0 0 7.35 7.35 0 0 14.7 7.35 0 0 7.35 7.35 0 0 7.34 7.35 0 0 7.35 7.35 0 0 7.35 7.35 0 0 14.7 7.34 0 0 7.35 7.35 0 0 7.35 7.35 0 0 7.34 7.35 0 0 7.35 7.35 0 0 14.7 7.35 0 0 7.35 7.35 0 0 7.35 7.35 0 0 7.35 7.34 0 0 7.35 7.35 0 0 7.34 7.35 0 0 14.7 7.35 0 0 7.35 7.35 0 0 7.35 7.35 0 0 7.35 7.35 0 0 7.35 7.35 0 0 14.69 7.34 0 0 7.35 7.35 0 0 7.35 7.35 0 0 7.35 7.35 0 0 7.35 7.35 0 0 7.35 7.35 0 0 14.7 7.35 0 0 7.34 -7.35 0 0 7.35 -7.35 0 0 7.35 -7.35 0 0 7.35 -7.35 0 0 7.35 -7.35 0 0 7.35 -7.35 0 0 7.35 -7.34 0 0 7.34 -7.35 0 0 7.35 -7.35 0 0 7.35 -7.35 0 0 7.35 -7.35 0 0 7.35 -7.35 0 0 7.35 -7.35 0 0 7.35 -7.35 0 0 7.35 -7.34 0 0 7.34 -7.35 0 0 7.35 -7.35 0 0 7.35 -7.35 0 0 7.35 -7.35 0 0 7.35 -7.35 0 0 7.35 -7.35 0 0 7.35 -7.35 0 0 7.35 -7.34 0 0 7.34 -7.35 0 0 7.35 -7.35 0 0 7.35 -7.35 0 0 7.35 -7.35 0 0 7.35 -7.35 0 0 7.35 -7.35 0 0 7.35 -7.35 0 0 7.34 -7.34 0 0 7.35 -7.35 0 0 7.35 -7.35 0 0 7.35 -7.35 0 0 7.35 -7.35 0 0 7.35 -7.35 0 0 7.35 -7.35 0 0 -7.35 -14.69 0 0 -7.35 -7.35 0 0 -7.35 -7.35 0 0 -7.35 -7.35 0 0 -7.35 -7.35 0 0 -7.35 -14.7 0 0 -7.34 -7.34 0 0 -7.35 -7.35 0 0 -7.35 -7.36 0 0 -7.35 -7.34 0 0 -7.35 -7.35 0 0 -7.35 -14.7 0 0 -7.35 -7.35 0 0 -7.34 -7.34 0 0 -7.35 -7.35 0 0 -7.35 -7.35 0 0 -7.35 -14.7 0 0 -7.35 -7.35 0 0 -7.35 -7.35 0 0 -7.35 -7.35 0 0 -7.35 -7.34 0 0 -7.34 -7.36 0 0 -7.35 -14.69 0 0 -7.35 -7.35 0 0 -7.35 -7.35 0 0 -7.35 -7.35 0 0 -7.35 -7.35 0 0 -7.35 -14.7 0 0 -7.35 -7.34 0 0 -7.34 -7.35 0 0 -7.35 -14.7 0 0 -7.35 -14.69 0 0 -7.35 -22.05 0 0 -7.35 -95.53 0 0 7.35 -22.05 0 0 7.35 -14.7 0 0 7.35 -14.7 0 0 7.35 -14.7 0 0 7.34 -14.69 0 0 7.35 -14.7 0 0 7.35 -14.69 0 0 7.35 -14.71 0 0 7.35 -14.69 0 0 7.35 -22.05 0 0 7.35 -14.7 0 0 7.35 -14.69 0 0 7.34 -22.05 0 0 7.35 -14.7 0 0 7.35 -22.04 0 0 7.35 -22.05 0 0 7.35 -22.05 0 0 7.35 -22.04 0 0 7.35 -22.05 0 0 7.35 -22.04 0 0 7.34 -14.7 0 0 7.35 -14.7 0 0 7.35 -7.35 0 0 7.35 -7.35 0 0 7.35 -7.35 0 0 7.35 -7.34 0 0 7.35 -7.35 0 0 7.34 -7.35 0 0 7.35 -7.35 0 0 7.35 -7.35 0 0 14.7 -7.35 0 0 14.7 -7.35 0 0 22.04 -7.34 0 0 44.1 -7.35 0 0 88.18 -7.35 0 0 88.19 -7.35 0 0 95.53 -7.35 0 0 44.09 -382.14 0 0 -44.09 -7.34 0 0 -88.19 -7.35 0 0 -88.18 -7.35 0 0 -88.19 -7.35 0 0 -51.44 -7.35 0 0 -22.04 -7.35 0 0 -14.7 -7.34 0 0 -14.7 -7.36 0 0 -7.35 -7.34 0 0 -7.35 -7.35 0 0 -7.34 -7.35 0 0 -7.35 -7.35 0 0 -7.35 -7.35 0 0 -7.35 -7.34 0 0 -7.35 -7.36 0 0 -7.35 -14.69 0 0 -7.35 -14.7 0 0 -7.34 -22.04 0 0 -7.35 -22.05 0 0 -7.35 -22.05 0 0 -7.35 -22.05 0 0 -7.35 -22.04 0 0 -7.35 -22.05 0 0 -7.35 -14.7 0 0 -7.35 -22.04 0 0 -7.34 -14.7 0 0 -7.35 -14.7 0 0 -7.35 -22.04 0 0 -7.35 -14.7 0 0 -7.35 -14.7 0 0 -7.35 -14.7 0 0 -7.35 -14.69 0 0 -7.35 -14.7 0 0 -7.34 -14.7 0 0 -7.35 -14.69 0 0 -7.35 -14.7 0 0 -7.35 -22.05 0 0 -7.35 -88.18 0 0 7.35 -29.4 0 0 7.35 -14.7 0 0 7.35 -14.69 0 0 7.35 -7.35 0 0 7.34 -7.35 0 0 7.35 -14.7 0 0 7.35 -7.35 0 0 7.35 -7.34 0 0 7.35 -7.35 0 0 7.35 -7.35 0 0 7.35 -14.7 0 0 7.35 -7.35 0 0 7.34 -7.35 0 0 7.35 -7.35 0 0 7.35 -7.34 0 0 7.35 -14.7 0 0 7.35 -7.35 0 0 7.35 -7.35 0 0 7.35 -7.35 0 0 7.35 -7.35 0 0 7.34 -7.35 0 0 7.35 -14.69 0 0 7.35 -7.35 0 0 7.35 -7.35 0 0 7.35 -7.35 0 0 7.35 -7.35 0 0 7.35 -14.7 0 0 7.34 -7.34 0 0 7.35 -7.35 0 0 7.35 -7.35 0 0 7.35 -7.35 0 0 7.35 -7.35 0 0 7.35 -14.7 0 0 7.35 -7.34 0 0 -7.35 -7.35 0 0 -7.35 -7.35 0 0 -7.35 -7.35 0 0 -7.35 -7.35 0 0 -7.35 -7.35 0 0 -7.35 -7.35 0 0 -7.34 -7.35 0 0 -7.35 -7.34 0 0 -7.35 -7.35 0 0 -7.35 -7.35 0 0 -7.35 -7.35 0 0 -7.35 -7.35 0 0 -7.35 -7.35 0 0 -7.34 -7.35 0 0 -7.35 -7.34 0 0 -7.35 -7.35 0 0 -7.35 -7.35 0 0 -7.35 -7.35 0 0 -7.35 -7.35 0 0 -7.35 -7.35 0 0 -7.35 -7.35 0 0 -7.34 -7.35 0 0 -7.35 -7.34 0 0 -7.35 -7.35 0 0 -7.35 -7.35 0 0 -7.35 -7.35 0 0 -7.35 -7.35 0 0 -7.35 -7.35 0 0 -7.35 -7.35 0 0 -7.34 -7.34 0 0 -7.35 -7.35 0 0 -7.35 -7.35 0 0 -7.35 -7.35 0 0 -7.35 -7.35 0 0 -7.35 -7.35 0 0 -7.35 -7.35 0 0 -7.34 7.35 0 0 -14.7 7.35 0 0 -7.35 7.35 0 0 -7.35 7.35 0 0 -7.35 7.35 0 0 -7.35 7.35 0 0 -14.69 7.34 0 0 -7.35 7.35 0 0 -7.35 7.35 0 0 -7.35 7.35 0 0 -7.35 7.35 0 0 -7.35 7.35 0 0 -14.7 7.35 0 0 -7.34 7.34 0 0 -7.35 7.35 0 0 -7.35 7.35 0 0 -7.35 7.35 0 0 -14.7 7.35 0 0 -7.35 7.35 0 0 -7.35 7.35 0 0 -7.34 7.35 0 0 -7.35 7.34 0 0 -7.35 7.35 0 0 -14.7 7.35 0 0 -7.35 7.35 0 0 -7.35 7.35 0 0 -7.34 7.35 0 0 -7.35 7.35 0 0 -14.7 7.34 0 0 -7.35 7.35 0 0 -7.35 7.35 0 0 -14.7 7.35 0 0 -14.69 7.35 0 0 -22.05 7.35 0 0 -95.53 -7.35 0 0 -22.05 -7.35 0 0 -14.7 -7.35 0 0 -14.69 -7.35 0 0 -14.7 -7.35 0 0 -14.7 -7.34 0 0 -14.7 -7.35 0 0 -14.69 -7.35 0 0 -14.7 -7.35 0 0 -14.7 -7.35 0 0 -22.04 -7.35 0 0 -14.7 -7.35 0 0 -14.7 -7.34 0 0 -22.05 -7.35 0 0 -14.7 -7.35 0 0 -22.04 -7.35 0 0 -22.05 -7.35 0 0 -22.04 -7.35 0 0 -22.05 -7.35 0 0 -22.05 -7.35 0 0 -22.04 -7.34 0 0 -14.7 -7.35 0 0 -14.69 -7.35 0 0 -7.36 -7.35 0 0 -7.34 -7.35 0 0 -7.35 -7.35 0 0 -7.35 -7.35 0 0 -7.35 -7.34 0 0 -7.35 -7.35 0 0 -7.35 -7.35 0 0 -7.35 -14.7 0 0 -7.35 -14.7 0 0 -7.34 -22.04 0 0 -7.35 -51.44 0 0 -7.35 -88.19 0 0 -7.35 -88.18 0 0 -7.35 -88.19 0 0 -7.35 -44.09 0 0 -382.13 44.09 0 0 -7.35 88.19 0 0 -7.35 88.18 0 0 -7.35 88.19 0 0 -7.35 51.44 0 0 -7.34 22.04 0 0 -7.35 14.7 0 0 -7.35 14.7 0 0 -7.35 7.35 0 0 -7.35 7.35 0 0 -7.35 7.34 0 0 -7.35 7.35 0 0 -7.35 7.35 0 0 -7.34 7.35 0 0 -7.35 7.35 0 0 -7.35 7.35 0 0 -14.7 7.35 0 0 -14.7 7.34 0 0 -22.04 7.35 0 0 -22.05 7.35 0 0 -22.05 7.35 0 0 -22.04 7.35 0 0 -22.05 7.35 0 0 -22.04 7.35 0 0 -14.7 7.35 0 0 -22.05 7.34 0 0 -14.69 7.35 0 0 -14.7 7.35 0 0 -22.05 7.35 0 0 -14.7 7.35 0 0 -14.7 7.35 0 0 -14.69 7.35 0 0 -14.7 7.34 0 0 -14.7 7.35 0 0 -14.7 7.35 0 0 -14.69 7.35 0 0 -14.7 7.35 0 0 -22.05 7.35 0 0 -95.53 -7.35 0 0 -22.05 -7.35 0 0 -14.69 -7.35 0 0 -14.7 -7.35 0 0 -7.35 -7.35 0 0 -7.35 -7.34 0 0 -14.7 -7.35 0 0 -7.34 -7.35 0 0 -7.35 -7.35 0 0 -7.35 -7.35 0 0 -7.35 -7.35 0 0 -14.7 -7.35 0 0 -7.35 -7.34 0 0 -7.35 -7.35 0 0 -7.34 -7.35 0 0 -7.35 -7.35 0 0 -14.7 -7.35 0 0 -7.35 -7.35 0 0 -7.35 -7.35 0 0 -7.35 -7.35 0 0 -7.35 -7.34 0 0 -7.34 -7.35 0 0 -14.7 -7.35 0 0 -7.35 -7.35 0 0 -7.35 -7.35 0 0 -7.35 -7.35 0 0 -7.35 -7.35 0 0 -14.69 -7.34 0 0 -7.35 -7.35 0 0 -7.35 -7.35 0 0 -7.35 -7.35 0 0 -7.35 -7.35 0 0 -7.35 -7.35 0 0 -14.69 -7.35 0 0 -7.35zm1146.39 -764.26l-22.05 0 0 7.35 -14.69 0 0 7.35 -7.35 0 0 7.35 -7.35 0 0 7.35 -7.35 0 0 7.34 -7.34 0 0 7.35 -7.36 0 0 14.7 -7.35 0 0 14.7 -7.34 0 0 29.39 -7.35 0 0 88.19 -7.35 0 0 88.18 -7.35 0 0 88.19 -7.35 0 0 73.48 -7.34 0 0 14.7 -7.36 0 0 14.7 -14.69 0 0 7.35 -7.35 0 0 7.35 -22.05 0 0 7.34 -29.39 0 0 7.35 -22.05 0 0 7.35 -22.05 0 0 7.35 -22.04 0 0 7.35 -14.7 0 0 7.35 -22.05 0 0 7.35 -14.69 0 0 7.35 -22.05 0 0 7.34 -14.7 0 0 7.35 -14.69 0 0 7.35 -14.7 0 0 7.35 -14.7 0 0 7.35 -14.7 0 0 7.35 -14.69 0 0 7.35 -14.7 0 0 7.34 -14.7 0 0 7.35 -14.7 0 0 7.35 -22.04 0 0 7.35 -22.05 0 0 -7.35 -14.7 0 0 -7.35 -14.69 0 0 -7.35 -7.35 0 0 -7.34 -7.35 0 0 -7.35 -7.35 0 0 -7.35 -14.7 0 0 -7.35 -7.35 0 0 -7.35 -7.34 0 0 -7.35 -7.35 0 0 -7.35 -7.35 0 0 -7.34 -7.35 0 0 -7.35 -14.7 0 0 -7.35 -7.35 0 0 -7.35 -7.34 0 0 -7.35 -7.35 0 0 -7.35 -7.35 0 0 -7.35 -14.7 0 0 -7.35 -7.35 0 0 -7.34 -7.35 0 0 -7.35 -7.35 0 0 -7.35 -7.34 0 0 -7.35 -7.35 0 0 -7.35 -14.7 0 0 -7.35 -7.35 0 0 -7.35 -7.35 0 0 -7.35 -7.35 0 0 -7.34 -7.35 0 0 -7.35 -14.69 0 0 -7.35 -7.35 0 0 -7.35 -7.35 0 0 -7.35 -7.35 0 0 -7.35 -14.7 0 0 -7.35 -14.69 0 0 -7.34 -22.05 0 0 -7.35 -44.09 0 0 7.35 -29.4 0 0 7.34 -14.69 0 0 7.35 -7.35 0 0 7.35 -14.7 0 0 7.35 -7.35 0 0 7.35 -7.35 0 0 7.35 -7.35 0 0 7.35 -7.34 0 0 7.34 -7.35 0 0 7.35 -7.35 0 0 7.35 -7.35 0 0 7.35 -7.35 0 0 7.35 -7.35 0 0 7.35 -7.35 0 0 7.35 -7.35 0 0 7.35 -7.34 0 0 7.34 -7.35 0 0 7.35 -7.35 0 0 7.35 -7.35 0 0 7.35 -7.35 0 0 7.35 -7.35 0 0 7.35 -7.35 0 0 7.35 -7.34 0 0 7.35 -7.35 0 0 7.34 -7.35 0 0 7.35 -7.35 0 0 7.35 -7.35 0 0 7.35 -7.35 0 0 7.35 -7.35 0 0 7.35 -7.35 0 0 7.35 -7.34 0 0 7.34 -7.35 0 0 7.35 -7.35 0 0 7.35 -7.35 0 0 7.35 -7.35 0 0 7.35 -7.35 0 0 7.35 -7.35 0 0 7.35 -7.34 0 0 7.35 -7.35 0 0 7.34 -7.35 0 0 7.35 -7.35 0 0 7.35 -7.35 0 0 7.35 -7.35 0 0 7.35 -7.35 0 0 14.7 -7.35 0 0 14.69 -7.34 0 0 22.05 -7.35 0 0 51.44 7.35 0 0 22.05 7.34 0 0 14.7 7.35 0 0 14.69 7.35 0 0 7.35 7.35 0 0 7.35 7.35 0 0 7.35 7.35 0 0 14.7 7.35 0 0 7.34 7.35 0 0 7.35 7.34 0 0 7.35 7.35 0 0 7.35 7.35 0 0 14.7 7.35 0 0 7.35 7.35 0 0 7.35 7.35 0 0 7.34 7.35 0 0 7.35 7.34 0 0 7.35 7.35 0 0 14.7 7.35 0 0 7.35 7.35 0 0 7.35 7.35 0 0 7.35 7.35 0 0 7.34 7.35 0 0 14.7 7.35 0 0 7.35 7.34 0 0 7.35 7.35 0 0 7.35 7.35 0 0 7.35 7.35 0 0 7.35 7.35 0 0 14.7 7.35 0 0 7.34 7.35 0 0 7.35 7.34 0 0 7.35 7.35 0 0 14.7 7.35 0 0 14.69 7.35 0 0 22.05 -7.35 0 0 22.05 -7.35 0 0 14.69 -7.35 0 0 14.7 -7.34 0 0 14.7 -7.35 0 0 14.7 -7.35 0 0 14.7 -7.35 0 0 14.69 -7.35 0 0 14.7 -7.35 0 0 14.7 -7.35 0 0 14.7 -7.34 0 0 22.04 -7.35 0 0 14.7 -7.35 0 0 22.05 -7.35 0 0 14.69 -7.35 0 0 22.05 -7.35 0 0 22.05 -7.35 0 0 22.04 -7.35 0 0 22.05 -7.34 0 0 22.04 -7.35 0 0 14.7 -7.35 0 0 14.7 -14.7 0 0 7.35 -14.7 0 0 7.35 -80.83 0 0 7.34 -88.19 0 0 7.35 -88.18 0 0 7.35 -80.84 0 0 7.35 -29.39 0 0 7.35 -14.7 0 0 7.35 -14.7 0 0 7.35 -7.35 0 0 7.35 -7.35 0 0 7.34 -7.34 0 0 7.35 -7.35 0 0 7.35 -7.35 0 0 14.7 -7.35 0 0 22.05 -7.35 0 0 455.62 7.35 0 0 22.04 7.35 0 0 14.7 7.35 0 0 7.35 7.35 0 0 7.35 7.34 0 0 7.35 7.35 0 0 7.34 7.35 0 0 7.36 14.7 0 0 7.34 14.7 0 0 7.35 29.39 0 0 7.35 88.19 0 0 7.35 88.18 0 0 7.35 88.19 0 0 7.34 73.48 0 0 7.35 14.7 0 0 7.36 14.7 0 0 14.69 7.35 0 0 14.7 7.35 0 0 22.04 7.34 0 0 22.05 7.35 0 0 22.05 7.35 0 0 22.04 7.35 0 0 22.05 7.35 0 0 14.7 7.35 0 0 22.04 7.35 0 0 14.7 7.35 0 0 22.04 7.34 0 0 14.71 7.35 0 0 14.69 7.35 0 0 14.7 7.35 0 0 14.69 7.35 0 0 14.71 7.35 0 0 14.69 7.35 0 0 14.7 7.34 0 0 14.7 7.35 0 0 14.69 7.35 0 0 22.05 7.35 0 0 22.05 -7.35 0 0 14.69 -7.35 0 0 14.7 -7.35 0 0 7.35 -7.34 0 0 7.35 -7.35 0 0 7.35 -7.35 0 0 14.7 -7.35 0 0 7.34 -7.35 0 0 7.35 -7.35 0 0 7.35 -7.35 0 0 7.35 -7.34 0 0 7.35 -7.35 0 0 14.7 -7.35 0 0 7.35 -7.35 0 0 7.34 -7.35 0 0 7.35 -7.35 0 0 7.35 -7.35 0 0 14.7 -7.35 0 0 7.35 -7.34 0 0 7.35 -7.35 0 0 7.34 -7.35 0 0 7.35 -7.35 0 0 7.35 -7.35 0 0 14.7 -7.35 0 0 7.35 -7.35 0 0 7.35 -7.34 0 0 7.35 -7.35 0 0 7.34 -7.35 0 0 14.7 -7.35 0 0 7.35 -7.35 0 0 7.35 -7.35 0 0 7.35 -7.35 0 0 14.7 -7.35 0 0 14.69 -7.34 0 0 22.05 -7.35 0 0 51.44 7.35 0 0 22.05 7.34 0 0 14.69 7.35 0 0 14.7 7.35 0 0 7.35 7.35 0 0 7.35 7.35 0 0 7.35 7.35 0 0 7.35 7.35 0 0 7.34 7.35 0 0 7.35 7.34 0 0 7.35 7.35 0 0 7.35 7.35 0 0 7.35 7.35 0 0 7.35 7.35 0 0 7.35 7.35 0 0 7.35 7.35 0 0 7.34 7.34 0 0 7.35 7.35 0 0 7.35 7.35 0 0 7.35 7.35 0 0 7.35 7.35 0 0 7.35 7.35 0 0 7.35 7.35 0 0 7.34 7.35 0 0 7.35 7.34 0 0 7.35 7.35 0 0 7.35 7.35 0 0 7.35 7.35 0 0 7.35 7.35 0 0 7.35 7.35 0 0 7.35 7.35 0 0 7.34 7.34 0 0 7.35 7.35 0 0 7.35 7.35 0 0 7.35 7.35 0 0 7.35 7.35 0 0 7.35 7.35 0 0 7.35 7.35 0 0 7.35 7.35 0 0 7.34 7.34 0 0 7.35 7.35 0 0 7.35 7.35 0 0 7.35 7.35 0 0 7.35 7.35 0 0 7.35 14.7 0 0 7.35 14.69 0 0 7.35 22.05 0 0 7.34 51.44 0 0 -7.34 22.05 0 0 -7.35 14.69 0 0 -7.35 14.7 0 0 -7.35 7.35 0 0 -7.35 7.35 0 0 -7.35 14.7 0 0 -7.35 7.34 0 0 -7.35 7.35 0 0 -7.34 7.35 0 0 -7.35 7.35 0 0 -7.35 7.35 0 0 -7.35 14.7 0 0 -7.35 7.35 0 0 -7.35 7.34 0 0 -7.35 7.35 0 0 -7.35 7.35 0 0 -7.34 14.7 0 0 -7.35 7.35 0 0 -7.35 7.35 0 0 -7.35 7.35 0 0 -7.35 7.34 0 0 -7.35 7.35 0 0 -7.35 14.7 0 0 -7.35 7.35 0 0 -7.34 7.35 0 0 -7.35 7.35 0 0 -7.35 7.34 0 0 -7.35 14.7 0 0 -7.35 7.35 0 0 -7.35 7.35 0 0 -7.35 7.35 0 0 -7.34 7.35 0 0 -7.35 14.69 0 0 -7.35 22.05 0 0 -7.35 14.7 0 0 7.35 22.04 0 0 7.35 14.7 0 0 7.35 14.7 0 0 7.34 14.7 0 0 7.35 14.69 0 0 7.35 14.7 0 0 7.35 14.7 0 0 7.35 14.7 0 0 7.35 14.69 0 0 7.35 14.7 0 0 7.34 22.05 0 0 7.35 14.69 0 0 7.35 22.05 0 0 7.35 22.05 0 0 7.35 14.69 0 0 7.35 22.05 0 0 7.35 22.05 0 0 7.35 29.39 0 0 7.34 22.05 0 0 7.35 14.7 0 0 7.35 7.34 0 0 14.7 7.36 0 0 14.7 7.34 0 0 73.48 7.35 0 0 88.19 7.35 0 0 88.18 7.35 0 0 80.84 7.35 0 0 36.74 7.34 0 0 14.7 7.35 0 0 14.7 7.36 0 0 7.35 7.34 0 0 7.35 7.35 0 0 7.35 7.35 0 0 7.34 7.35 0 0 7.35 14.69 0 0 7.35 22.05 0 0 7.35 455.62 0 0 -7.35 22.05 0 0 -7.35 14.7 0 0 -7.35 7.35 0 0 -7.34 7.34 0 0 -7.35 7.35 0 0 -7.35 7.35 0 0 -7.35 7.35 0 0 -14.7 7.35 0 0 -14.7 7.35 0 0 -29.39 7.35 0 0 -88.19 7.35 0 0 -88.18 7.34 0 0 -88.19 7.35 0 0 -73.48 7.35 0 0 -14.7 7.35 0 0 -14.7 14.7 0 0 -7.35 14.7 0 0 -7.35 22.04 0 0 -7.34 22.05 0 0 -7.35 22.04 0 0 -7.35 22.05 0 0 -7.35 22.05 0 0 -7.35 14.69 0 0 -7.35 22.05 0 0 -7.35 14.7 0 0 -7.35 22.04 0 0 -7.34 14.7 0 0 -7.35 14.7 0 0 -7.35 14.7 0 0 -7.35 14.69 0 0 -7.35 14.7 0 0 -7.35 14.7 0 0 -7.35 14.7 0 0 -7.34 14.7 0 0 -7.35 14.69 0 0 -7.35 22.05 0 0 -7.35 14.69 0 0 7.35 22.05 0 0 7.35 14.7 0 0 7.35 7.35 0 0 7.34 7.34 0 0 7.35 7.35 0 0 7.35 14.7 0 0 7.35 7.35 0 0 7.35 7.35 0 0 7.35 7.35 0 0 7.35 7.35 0 0 7.34 7.34 0 0 7.35 14.7 0 0 7.35 7.35 0 0 7.35 7.35 0 0 7.35 7.35 0 0 7.35 7.35 0 0 7.35 14.69 0 0 7.35 7.36 0 0 7.34 7.34 0 0 7.35 7.35 0 0 7.35 7.35 0 0 7.35 7.35 0 0 7.35 14.7 0 0 7.35 7.35 0 0 7.35 7.35 0 0 7.35 7.34 0 0 7.34 7.35 0 0 7.35 7.35 0 0 7.35 14.7 0 0 7.35 7.34 0 0 7.35 7.36 0 0 7.35 14.69 0 0 7.35 14.7 0 0 7.35 22.05 0 0 7.34 51.44 0 0 -7.34 22.04 0 0 -7.35 14.7 0 0 -7.35 14.7 0 0 -7.35 7.35 0 0 -7.35 7.35 0 0 -7.35 7.35 0 0 -7.35 7.34 0 0 -7.35 7.35 0 0 -7.34 7.35 0 0 -7.35 7.35 0 0 -7.35 7.35 0 0 -7.35 7.35 0 0 -7.35 7.35 0 0 -7.35 7.35 0 0 -7.35 7.34 0 0 -7.35 7.35 0 0 -7.34 7.35 0 0 -7.35 7.35 0 0 -7.35 7.35 0 0 -7.35 7.35 0 0 -7.35 7.35 0 0 -7.35 7.35 0 0 -7.35 7.34 0 0 -7.35 7.35 0 0 -7.34 7.35 0 0 -7.35 7.35 0 0 -7.35 7.35 0 0 -7.35 7.35 0 0 -7.35 7.35 0 0 -7.35 7.34 0 0 -7.35 7.35 0 0 -7.34 7.35 0 0 -7.35 7.35 0 0 -7.35 7.35 0 0 -7.35 7.35 0 0 -7.35 7.35 0 0 -7.35 7.35 0 0 -7.35 7.34 0 0 -7.35 7.35 0 0 -7.34 7.35 0 0 -7.35 7.35 0 0 -7.35 7.35 0 0 -7.35 7.35 0 0 -7.35 7.35 0 0 -14.7 7.35 0 0 -14.69 7.34 0 0 -22.05 7.35 0 0 -51.44 -7.35 0 0 -22.05 -7.34 0 0 -14.69 -7.35 0 0 -14.7 -7.35 0 0 -7.35 -7.35 0 0 -7.35 -7.35 0 0 -7.35 -7.35 0 0 -14.7 -7.35 0 0 -7.34 -7.35 0 0 -7.35 -7.34 0 0 -7.35 -7.35 0 0 -7.35 -7.35 0 0 -14.7 -7.35 0 0 -7.35 -7.35 0 0 -7.35 -7.35 0 0 -7.34 -7.35 0 0 -7.35 -7.35 0 0 -7.35 -7.34 0 0 -14.7 -7.35 0 0 -7.35 -7.35 0 0 -7.35 -7.35 0 0 -7.34 -7.35 0 0 -7.35 -7.35 0 0 -14.7 -7.35 0 0 -7.35 -7.34 0 0 -7.35 -7.35 0 0 -7.35 -7.35 0 0 -7.35 -7.35 0 0 -7.34 -7.35 0 0 -14.7 -7.35 0 0 -7.35 -7.35 0 0 -7.35 -7.35 0 0 -7.35 -7.34 0 0 -14.7 -7.35 0 0 -14.69 -7.35 0 0 -22.05 7.35 0 0 -22.05 7.35 0 0 -14.69 7.34 0 0 -14.7 7.35 0 0 -14.7 7.35 0 0 -14.69 7.35 0 0 -14.71 7.35 0 0 -14.69 7.35 0 0 -14.7 7.35 0 0 -14.69 7.35 0 0 -14.71 7.34 0 0 -22.04 7.35 0 0 -14.7 7.35 0 0 -22.04 7.35 0 0 -14.7 7.35 0 0 -22.05 7.35 0 0 -22.04 7.35 0 0 -22.05 7.34 0 0 -22.05 7.35 0 0 -22.04 7.35 0 0 -14.7 7.35 0 0 -14.69 14.7 0 0 -7.36 14.7 0 0 -7.35 80.83 0 0 -7.34 88.19 0 0 -7.35 88.18 0 0 -7.35 80.84 0 0 -7.35 29.39 0 0 -7.35 14.7 0 0 -7.34 14.7 0 0 -7.36 7.34 0 0 -7.34 7.35 0 0 -7.35 7.36 0 0 -7.35 7.34 0 0 -7.35 7.35 0 0 -14.7 7.35 0 0 -22.04 7.35 0 0 -455.62 -7.35 0 0 -22.05 -7.35 0 0 -14.7 -7.35 0 0 -7.35 -7.34 0 0 -7.35 -7.36 0 0 -7.34 -7.35 0 0 -7.35 -7.34 0 0 -7.35 -14.7 0 0 -7.35 -14.7 0 0 -7.35 -29.39 0 0 -7.35 -88.19 0 0 -7.35 -88.18 0 0 -7.35 -88.19 0 0 -7.34 -73.48 0 0 -7.35 -14.7 0 0 -7.35 -14.7 0 0 -14.7 -7.35 0 0 -14.7 -7.35 0 0 -22.04 -7.35 0 0 -22.05 -7.34 0 0 -22.04 -7.35 0 0 -22.05 -7.35 0 0 -22.05 -7.35 0 0 -14.69 -7.35 0 0 -22.05 -7.35 0 0 -14.7 -7.35 0 0 -22.04 -7.34 0 0 -14.7 -7.35 0 0 -14.7 -7.35 0 0 -14.7 -7.35 0 0 -14.69 -7.35 0 0 -14.7 -7.35 0 0 -14.7 -7.35 0 0 -14.7 -7.35 0 0 -14.7 -7.34 0 0 -14.69 -7.35 0 0 -22.05 -7.35 0 0 -22.05 7.35 0 0 -14.69 7.35 0 0 -14.7 7.34 0 0 -7.35 7.35 0 0 -7.35 7.35 0 0 -7.34 7.35 0 0 -14.7 7.35 0 0 -7.35 7.35 0 0 -7.35 7.35 0 0 -7.35 7.35 0 0 -7.35 7.34 0 0 -7.35 7.35 0 0 -14.7 7.35 0 0 -7.34 7.35 0 0 -7.35 7.35 0 0 -7.35 7.35 0 0 -7.35 7.35 0 0 -14.7 7.34 0 0 -7.35 7.35 0 0 -7.35 7.35 0 0 -7.34 7.35 0 0 -7.35 7.35 0 0 -7.35 7.35 0 0 -14.7 7.35 0 0 -7.35 7.35 0 0 -7.35 7.34 0 0 -7.35 7.35 0 0 -7.34 7.35 0 0 -14.7 7.35 0 0 -7.35 7.35 0 0 -7.35 7.35 0 0 -7.35 7.35 0 0 -14.69 7.35 0 0 -14.7 7.34 0 0 -22.05 7.35 0 0 -51.44 -7.35 0 0 -22.05 -7.34 0 0 -14.69 -7.35 0 0 -14.7 -7.35 0 0 -7.35 -7.35 0 0 -7.35 -7.35 0 0 -7.35 -7.35 0 0 -7.35 -7.35 0 0 -7.34 -7.35 0 0 -7.35 -7.34 0 0 -7.35 -7.35 0 0 -7.35 -7.35 0 0 -7.35 -7.35 0 0 -7.35 -7.35 0 0 -7.35 -7.35 0 0 -7.35 -7.35 0 0 -7.34 -7.35 0 0 -7.35 -7.34 0 0 -7.35 -7.35 0 0 -7.35 -7.35 0 0 -7.35 -7.35 0 0 -7.35 -7.35 0 0 -7.35 -7.35 0 0 -7.34 -7.35 0 0 -7.35 -7.34 0 0 -7.35 -7.35 0 0 -7.35 -7.35 0 0 -7.35 -7.35 0 0 -7.35 -7.35 0 0 -7.35 -7.35 0 0 -7.35 -7.35 0 0 -7.34 -7.35 0 0 -7.35 -7.34 0 0 -7.35 -7.35 0 0 -7.35 -7.35 0 0 -7.35 -7.35 0 0 -7.35 -7.35 0 0 -7.35 -7.35 0 0 -7.35 -7.35 0 0 -7.34 -7.35 0 0 -7.35 -7.34 0 0 -7.35 -7.35 0 0 -7.35 -7.35 0 0 -7.35 -7.35 0 0 -7.35 -14.7 0 0 -7.35 -14.7 0 0 -7.34 -22.04 0 0 -7.35 -51.44 0 0 7.35 -22.05 0 0 7.34 -14.7 0 0 7.35 -14.69 0 0 7.35 -7.36 0 0 7.35 -7.34 0 0 7.35 -7.35 0 0 7.35 -14.7 0 0 7.35 -7.35 0 0 7.34 -7.34 0 0 7.35 -7.35 0 0 7.35 -7.35 0 0 7.35 -14.7 0 0 7.35 -7.35 0 0 7.35 -7.35 0 0 7.35 -7.35 0 0 7.35 -7.34 0 0 7.34 -7.36 0 0 7.35 -14.69 0 0 7.35 -7.35 0 0 7.35 -7.35 0 0 7.35 -7.35 0 0 7.35 -7.35 0 0 7.35 -14.7 0 0 7.35 -7.34 0 0 7.34 -7.35 0 0 7.35 -7.35 0 0 7.35 -7.35 0 0 7.35 -7.35 0 0 7.35 -14.7 0 0 7.35 -7.35 0 0 7.35 -7.34 0 0 7.34 -7.35 0 0 7.35 -14.7 0 0 7.35 -14.69 0 0 7.35 -22.05 0 0 -7.35 -22.05 0 0 -7.35 -14.69 0 0 -7.35 -14.7 0 0 -7.34 -14.7 0 0 -7.35 -14.7 0 0 -7.35 -14.7 0 0 -7.35 -14.69 0 0 -7.35 -14.7 0 0 -7.35 -14.7 0 0 -7.35 -14.7 0 0 -7.34 -22.04 0 0 -7.35 -14.7 0 0 -7.35 -22.05 0 0 -7.35 -14.69 0 0 -7.35 -22.05 0 0 -7.35 -22.05 0 0 -7.35 -22.04 0 0 -7.35 -29.4 0 0 -7.34 -22.04 0 0 -7.35 -7.35 0 0 -7.35 -14.7 0 0 -14.7 -7.35 0 0 -14.7 -7.35 0 0 -73.48 -7.35 0 0 -88.19 -7.34 0 0 -88.18 -7.35 0 0 -88.19 -7.35 0 0 -29.39 -7.35 0 0 -14.7 -7.35 0 0 -14.7 -7.35 0 0 -7.35 -7.35 0 0 -7.34 -7.35 0 0 -7.35 -7.34 0 0 -7.35 -7.35 0 0 -7.35 -14.7 0 0 -7.35 -22.05 0 0 -7.35 -455.62 0 0 7.35z"/>
    <path class="fil1" d="M1065.55 1859.26l7.35 0 0 -88.19 7.35 0 0 -51.44 7.35 0 0 -29.39 7.35 0 0 -29.4 7.35 0 0 -22.04 7.35 0 0 -22.05 7.34 0 0 -22.04 7.35 0 0 -22.05 7.35 0 0 -14.7 7.35 0 0 -14.7 7.35 0 0 -14.69 7.35 0 0 -14.7 7.35 0 0 -14.7 7.35 0 0 -14.7 7.34 0 0 -14.69 7.35 0 0 -7.35 7.35 0 0 -14.7 7.35 0 0 -14.7 7.35 0 0 -7.34 7.35 0 0 -14.71 7.35 0 0 -7.34 7.35 0 0 -7.35 7.34 0 0 -14.7 7.35 0 0 -7.35 7.35 0 0 -7.34 7.35 0 0 -7.35 7.35 0 0 -7.35 7.35 0 0 -14.7 7.35 0 0 -7.35 7.34 0 0 -7.35 7.35 0 0 -7.35 7.35 0 0 -7.34 7.35 0 0 -7.36 7.35 0 0 -7.34 7.35 0 0 -7.35 7.35 0 0 -7.35 7.35 0 0 -7.35 14.69 0 0 -7.35 7.36 0 0 -7.35 7.34 0 0 -7.34 7.35 0 0 -7.36 7.35 0 0 -7.34 14.7 0 0 -7.35 7.34 0 0 -7.35 7.35 0 0 -7.35 14.7 0 0 -7.35 7.35 0 0 -7.35 14.7 0 0 -7.35 14.69 0 0 -7.35 7.36 0 0 -7.34 14.69 0 0 -7.35 14.7 0 0 -7.35 14.7 0 0 -7.35 14.7 0 0 -7.35 14.69 0 0 -7.34 14.7 0 0 -7.36 14.69 0 0 -7.35 22.05 0 0 -7.34 22.05 0 0 -7.35 22.05 0 0 -7.35 22.04 0 0 -7.35 29.39 0 0 -7.35 29.4 0 0 -7.34 51.44 0 0 -7.36 88.19 0 0 -7.34 44.09 0 0 7.34 88.18 0 0 7.36 51.45 0 0 7.34 29.39 0 0 7.35 29.4 0 0 7.35 22.04 0 0 7.35 22.05 0 0 7.35 22.04 0 0 7.34 22.05 0 0 7.35 14.7 0 0 7.36 14.69 0 0 7.34 14.7 0 0 7.35 14.7 0 0 7.35 14.7 0 0 7.35 14.69 0 0 7.35 14.7 0 0 7.34 7.35 0 0 7.35 14.7 0 0 7.35 14.7 0 0 7.35 7.34 0 0 7.35 14.7 0 0 7.35 7.35 0 0 7.35 7.35 0 0 7.35 14.7 0 0 7.34 7.34 0 0 7.36 7.35 0 0 7.34 7.35 0 0 7.35 7.35 0 0 7.35 14.7 0 0 7.35 7.35 0 0 7.35 7.35 0 0 7.35 7.34 0 0 7.34 7.35 0 0 7.36 7.36 0 0 7.34 7.34 0 0 7.35 7.35 0 0 7.35 7.35 0 0 7.35 7.35 0 0 14.7 7.35 0 0 7.35 7.34 0 0 7.35 7.35 0 0 7.34 7.35 0 0 7.35 7.35 0 0 14.7 7.35 0 0 7.35 7.35 0 0 7.34 7.35 0 0 14.71 7.35 0 0 7.34 7.34 0 0 14.7 7.36 0 0 14.7 7.34 0 0 7.35 7.35 0 0 14.69 7.35 0 0 14.7 7.35 0 0 14.7 7.35 0 0 14.7 7.35 0 0 14.69 7.34 0 0 14.7 7.36 0 0 14.7 7.34 0 0 22.05 7.35 0 0 22.04 7.35 0 0 22.05 7.35 0 0 22.04 7.35 0 0 29.4 7.34 0 0 29.39 7.35 0 0 51.44 7.36 0 0 88.19 7.34 0 0 44.09 -7.34 0 0 88.19 -7.36 0 0 44.09 -7.35 0 0 36.74 -7.34 0 0 22.05 -7.35 0 0 29.39 -7.35 0 0 22.05 -7.35 0 0 22.05 -7.35 0 0 14.7 -7.34 0 0 22.04 -7.36 0 0 14.7 -7.34 0 0 14.69 -7.35 0 0 14.7 -7.35 0 0 14.7 -7.35 0 0 14.7 -7.35 0 0 14.69 -7.35 0 0 7.35 -7.34 0 0 14.7 -7.36 0 0 14.7 -7.34 0 0 7.35 -7.35 0 0 7.34 -7.35 0 0 14.7 -7.35 0 0 7.35 -7.35 0 0 7.35 -7.35 0 0 14.7 -7.35 0 0 7.35 -7.35 0 0 7.34 -7.34 0 0 7.36 -7.35 0 0 14.69 -7.35 0 0 7.35 -7.35 0 0 7.35 -7.35 0 0 7.35 -7.34 0 0 7.34 -7.36 0 0 7.36 -7.35 0 0 7.35 -7.34 0 0 7.34 -7.35 0 0 7.35 -7.35 0 0 7.35 -14.7 0 0 7.35 -7.35 0 0 7.35 -7.35 0 0 7.34 -7.35 0 0 7.36 -14.69 0 0 7.35 -7.35 0 0 7.34 -7.35 0 0 7.35 -14.7 0 0 7.35 -7.35 0 0 7.35 -7.34 0 0 7.35 -14.7 0 0 7.35 -14.7 0 0 7.35 -7.35 0 0 7.34 -14.7 0 0 7.35 -14.69 0 0 7.35 -14.7 0 0 7.35 -14.7 0 0 7.35 -14.7 0 0 7.35 -14.69 0 0 7.35 -22.05 0 0 7.35 -14.7 0 0 7.34 -22.04 0 0 7.35 -22.05 0 0 7.35 -29.39 0 0 7.35 -22.05 0 0 7.35 -36.74 0 0 7.35 -44.1 0 0 7.35 -88.18 0 0 7.35 -44.09 0 0 -7.35 -88.19 0 0 -7.35 -51.44 0 0 -7.35 -29.4 0 0 -7.35 -29.39 0 0 -7.35 -22.04 0 0 -7.35 -22.05 0 0 -7.35 -22.05 0 0 -7.34 -22.05 0 0 -7.35 -14.69 0 0 -7.35 -14.7 0 0 -7.35 -14.69 0 0 -7.35 -14.7 0 0 -7.35 -14.7 0 0 -7.35 -14.7 0 0 -7.35 -14.69 0 0 -7.34 -7.36 0 0 -7.35 -14.69 0 0 -7.35 -14.7 0 0 -7.35 -7.35 0 0 -7.35 -14.7 0 0 -7.35 -7.35 0 0 -7.35 -7.34 0 0 -7.34 -14.7 0 0 -7.35 -7.35 0 0 -7.36 -7.35 0 0 -7.34 -7.34 0 0 -7.35 -7.36 0 0 -7.35 -14.69 0 0 -7.35 -7.35 0 0 -7.35 -7.35 0 0 -7.34 -7.35 0 0 -7.35 -7.35 0 0 -7.36 -7.35 0 0 -7.34 -7.35 0 0 -7.35 -7.35 0 0 -7.35 -7.34 0 0 -7.35 -7.35 0 0 -14.69 -7.35 0 0 -7.36 -7.35 0 0 -7.34 -7.35 0 0 -7.35 -7.35 0 0 -7.35 -7.35 0 0 -14.7 -7.34 0 0 -7.35 -7.35 0 0 -7.34 -7.35 0 0 -14.7 -7.35 0 0 -7.35 -7.35 0 0 -14.7 -7.35 0 0 -14.7 -7.35 0 0 -7.35 -7.35 0 0 -14.69 -7.34 0 0 -14.7 -7.35 0 0 -14.7 -7.35 0 0 -14.7 -7.35 0 0 -14.69 -7.35 0 0 -14.7 -7.35 0 0 -14.7 -7.35 0 0 -22.04 -7.35 0 0 -22.05 -7.34 0 0 -22.05 -7.35 0 0 -22.04 -7.35 0 0 -29.4 -7.35 0 0 -29.39 -7.35 0 0 -51.44 -7.35 0 0 -88.19 -7.35 0 0 -44.09zm712.82 -911.23l-51.44 0 0 7.34 -44.09 0 0 7.35 -22.05 0 0 7.35 -29.4 0 0 7.35 -29.39 0 0 7.35 -22.05 0 0 7.35 -22.04 0 0 7.35 -14.7 0 0 7.35 -22.05 0 0 7.34 -14.69 0 0 7.35 -14.7 0 0 7.35 -22.04 0 0 7.35 -14.7 0 0 7.35 -14.7 0 0 7.35 -14.7 0 0 7.35 -7.35 0 0 7.35 -14.7 0 0 7.34 -14.69 0 0 7.36 -7.35 0 0 7.34 -14.7 0 0 7.35 -7.34 0 0 7.35 -14.71 0 0 7.35 -7.34 0 0 7.35 -14.7 0 0 7.34 -7.35 0 0 7.35 -7.35 0 0 7.36 -14.7 0 0 7.34 -7.35 0 0 7.35 -7.34 0 0 7.35 -7.35 0 0 7.35 -7.35 0 0 7.35 -7.35 0 0 7.34 -14.7 0 0 7.35 -7.35 0 0 7.35 -7.34 0 0 7.35 -7.35 0 0 7.35 -7.35 0 0 7.35 -7.35 0 0 7.35 -7.35 0 0 7.35 -7.35 0 0 7.34 -7.35 0 0 14.7 -7.35 0 0 7.35 -7.34 0 0 7.35 -7.35 0 0 7.35 -7.35 0 0 7.35 -7.35 0 0 7.35 -7.35 0 0 14.7 -7.35 0 0 7.34 -7.35 0 0 7.35 -7.35 0 0 14.7 -7.34 0 0 7.35 -7.35 0 0 14.7 -7.35 0 0 7.35 -7.35 0 0 14.69 -7.35 0 0 7.35 -7.35 0 0 14.7 -7.35 0 0 14.7 -7.35 0 0 7.35 -7.34 0 0 14.69 -7.35 0 0 14.7 -7.35 0 0 14.7 -7.35 0 0 22.04 -7.35 0 0 14.7 -7.35 0 0 14.7 -7.35 0 0 22.04 -7.34 0 0 14.7 -7.35 0 0 22.05 -7.35 0 0 22.04 -7.35 0 0 29.4 -7.35 0 0 29.39 -7.35 0 0 22.05 -7.35 0 0 44.09 -7.35 0 0 51.44 -7.34 0 0 205.77 7.34 0 0 51.44 7.35 0 0 44.09 7.35 0 0 22.05 7.35 0 0 29.39 7.35 0 0 29.4 7.35 0 0 22.05 7.35 0 0 22.04 7.35 0 0 14.7 7.34 0 0 22.05 7.35 0 0 14.69 7.35 0 0 14.7 7.35 0 0 22.04 7.35 0 0 14.7 7.35 0 0 14.7 7.35 0 0 14.7 7.34 0 0 7.34 7.35 0 0 14.7 7.35 0 0 14.7 7.35 0 0 7.35 7.35 0 0 14.7 7.35 0 0 7.34 7.35 0 0 14.7 7.35 0 0 7.35 7.34 0 0 14.7 7.35 0 0 7.35 7.35 0 0 7.34 7.35 0 0 14.71 7.35 0 0 7.34 7.35 0 0 7.35 7.35 0 0 7.35 7.35 0 0 7.35 7.34 0 0 7.35 7.35 0 0 14.7 7.35 0 0 7.35 7.35 0 0 7.34 7.35 0 0 7.35 7.35 0 0 7.35 7.35 0 0 7.35 7.35 0 0 7.35 7.34 0 0 7.35 7.35 0 0 7.35 14.7 0 0 7.34 7.35 0 0 7.35 7.35 0 0 7.35 7.35 0 0 7.35 7.34 0 0 7.35 7.35 0 0 7.35 14.7 0 0 7.35 7.35 0 0 7.35 7.35 0 0 7.34 14.7 0 0 7.35 7.34 0 0 7.35 14.71 0 0 7.35 7.34 0 0 7.35 14.7 0 0 7.35 7.35 0 0 7.35 14.69 0 0 7.35 14.7 0 0 7.34 7.35 0 0 7.35 14.7 0 0 7.35 14.7 0 0 7.35 14.7 0 0 7.35 22.04 0 0 7.35 14.7 0 0 7.35 14.69 0 0 7.35 22.05 0 0 7.34 14.7 0 0 7.35 22.04 0 0 7.35 22.05 0 0 7.35 29.39 0 0 7.35 29.4 0 0 7.35 22.05 0 0 7.35 44.09 0 0 7.34 51.44 0 0 7.35 205.77 0 0 -7.35 51.44 0 0 -7.34 44.09 0 0 -7.35 22.05 0 0 -7.35 29.39 0 0 -7.35 29.39 0 0 -7.35 22.05 0 0 -7.35 22.05 0 0 -7.35 14.69 0 0 -7.34 22.05 0 0 -7.35 14.7 0 0 -7.35 14.7 0 0 -7.35 22.04 0 0 -7.35 14.7 0 0 -7.35 14.7 0 0 -7.35 14.69 0 0 -7.35 7.35 0 0 -7.34 14.7 0 0 -7.35 14.7 0 0 -7.35 7.35 0 0 -7.35 14.69 0 0 -7.35 7.35 0 0 -7.35 14.7 0 0 -7.35 7.35 0 0 -7.35 14.7 0 0 -7.34 7.34 0 0 -7.35 7.35 0 0 -7.35 14.7 0 0 -7.35 7.35 0 0 -7.35 7.35 0 0 -7.35 7.35 0 0 -7.35 7.35 0 0 -7.35 7.34 0 0 -7.34 14.7 0 0 -7.35 7.35 0 0 -7.35 7.35 0 0 -7.35 7.35 0 0 -7.35 7.35 0 0 -7.35 7.35 0 0 -7.35 7.34 0 0 -7.34 7.36 0 0 -7.35 7.34 0 0 -14.7 7.35 0 0 -7.35 7.35 0 0 -7.35 7.35 0 0 -7.35 7.35 0 0 -7.35 7.35 0 0 -7.34 7.34 0 0 -14.71 7.36 0 0 -7.34 7.34 0 0 -7.35 7.35 0 0 -14.7 7.35 0 0 -7.35 7.35 0 0 -14.7 7.35 0 0 -7.34 7.34 0 0 -14.7 7.35 0 0 -7.35 7.36 0 0 -14.7 7.34 0 0 -14.7 7.35 0 0 -7.34 7.35 0 0 -14.7 7.35 0 0 -14.7 7.35 0 0 -14.7 7.34 0 0 -22.04 7.36 0 0 -14.7 7.34 0 0 -14.69 7.35 0 0 -22.05 7.35 0 0 -14.7 7.35 0 0 -22.04 7.35 0 0 -22.05 7.35 0 0 -29.4 7.34 0 0 -29.39 7.36 0 0 -22.05 7.34 0 0 -44.09 7.35 0 0 -51.44 7.35 0 0 -205.77 -7.35 0 0 -44.09 -7.35 0 0 -44.09 -7.34 0 0 -29.4 -7.36 0 0 -29.39 -7.34 0 0 -29.4 -7.35 0 0 -22.04 -7.35 0 0 -22.05 -7.35 0 0 -14.7 -7.35 0 0 -22.04 -7.35 0 0 -14.7 -7.34 0 0 -14.7 -7.36 0 0 -14.69 -7.34 0 0 -14.7 -7.35 0 0 -22.05 -7.35 0 0 -7.35 -7.35 0 0 -14.69 -7.35 0 0 -14.7 -7.34 0 0 -7.35 -7.36 0 0 -14.7 -7.35 0 0 -14.69 -7.34 0 0 -7.35 -7.35 0 0 -14.7 -7.35 0 0 -7.35 -7.35 0 0 -7.35 -7.35 0 0 -14.7 -7.34 0 0 -7.34 -7.36 0 0 -7.36 -7.34 0 0 -14.69 -7.35 0 0 -7.35 -7.35 0 0 -7.35 -7.35 0 0 -7.35 -7.35 0 0 -7.35 -7.35 0 0 -7.34 -7.34 0 0 -14.7 -7.36 0 0 -7.35 -7.34 0 0 -7.35 -7.35 0 0 -7.35 -7.35 0 0 -7.35 -7.35 0 0 -7.35 -7.35 0 0 -7.35 -14.7 0 0 -7.35 -7.35 0 0 -7.34 -7.34 0 0 -7.35 -7.35 0 0 -7.35 -7.35 0 0 -7.35 -7.35 0 0 -7.35 -14.69 0 0 -7.34 -7.36 0 0 -7.36 -7.35 0 0 -7.35 -14.69 0 0 -7.34 -7.35 0 0 -7.35 -7.35 0 0 -7.35 -14.7 0 0 -7.35 -7.35 0 0 -7.35 -14.69 0 0 -7.34 -14.7 0 0 -7.36 -7.35 0 0 -7.34 -14.7 0 0 -7.35 -14.69 0 0 -7.35 -7.35 0 0 -7.35 -22.05 0 0 -7.35 -14.7 0 0 -7.35 -14.69 0 0 -7.35 -14.7 0 0 -7.35 -14.7 0 0 -7.34 -22.05 0 0 -7.35 -14.69 0 0 -7.35 -22.05 0 0 -7.35 -22.05 0 0 -7.35 -29.39 0 0 -7.35 -29.39 0 0 -7.35 -29.4 0 0 -7.35 -44.09 0 0 -7.34 -44.09 0 0 -7.35 -205.77 0 0 7.35z"/>
   </g>
   <path class="fil0 str0" d="M1339.58 1933.03l0 -41.8 336.37 -171.35 0 66.91 -258.04 124.31 2.09 -4.17 0 10.41 -2.09 -4.17 258.04 124.31 0 66.91 -336.37 -171.35zm656.17 -371.9l-172.35 640.35 -56.5 0 172.47 -640.35 56.39 0zm427.17 371.9l-336.36 171.35 0 -66.91 258.03 -124.31 -2.09 4.17 0 -10.41 2.09 4.17 -258.03 -124.31 0 -66.91 336.36 171.35 0 41.8z"/>
  </g>
 </g>
</svg>
